<?xml version="1.0" encoding="UTF-8" standalone="no"?>
<svg
   xmlns:dc="http://purl.org/dc/elements/1.1/"
   xmlns:cc="http://creativecommons.org/ns#"
   xmlns:rdf="http://www.w3.org/1999/02/22-rdf-syntax-ns#"
   xmlns:svg="http://www.w3.org/2000/svg"
   xmlns="http://www.w3.org/2000/svg"
   viewBox="0 0 4666.6665 4567.1069"
   height="4567.1069"
   width="4666.6665"
   xml:space="preserve"
   id="svg2"
   version="1.1"><metadata
     id="metadata8"><rdf:RDF><cc:Work
         rdf:about=""><dc:format>image/svg+xml</dc:format><dc:type
           rdf:resource="http://purl.org/dc/dcmitype/StillImage" /></cc:Work></rdf:RDF></metadata><defs
     id="defs6" /><g
     transform="matrix(1.3333333,0,0,-1.3333333,0,4567.1067)"
     id="g10"><g
       transform="scale(0.1)"
       id="g12"><g
         transform="scale(1.53883)"
         id="g14"><path
           id="path16"
           style="fill:#e1e0df;fill-opacity:1;fill-rule:nonzero;stroke:none"
           d="M 16300,3301.54 V 174.808 H 1737.66 c -862.532,0 -1561.615,702.549 -1561.615,1565.092 0,431.23 173.902,820.81 455.615,1102.52 285.2,285.22 674.74,459.12 1106,459.12 H 16300" /></g><g
         transform="scale(1.16558)"
         id="g18"><path
           id="path20"
           style="fill:#bcbbbb;fill-opacity:1;fill-rule:nonzero;stroke:none"
           d="M 1018.96,981.317 C 676.399,1315.06 463.29,1781.61 463.29,2297.06 c 0,489.03 189.478,947.77 534.121,1292.5 105.429,105.44 221.359,196.46 345.379,272.13 199.36,120.89 418.67,202.65 648.12,241.09 99.24,16.56 200.48,24.96 303.01,24.96 H 16047.5 c 79.7,-156.92 164,-310.4 252.5,-460.03 H 2983.19 c -569.42,0 -1084.59,-225.98 -1459.71,-605.62 -370.58,-370.55 -601.063,-885.74 -601.063,-1455.16 0,-218.43 33.48,-428.54 96.543,-625.613" /></g><g
         transform="scale(1.55536)"
         id="g22"><path
           id="path24"
           style="fill:#60211e;fill-opacity:1;fill-rule:nonzero;stroke:none"
           d="m 1719.05,3093.3 c -366.46,0 -711.63,-143.37 -971.598,-403.31 C 489.18,2431.65 347.186,2087.88 347.186,1721.4 347.186,963.12 962.469,346.159 1719.05,346.159 H 15953.8 V 3093.3 H 1719.05 M 16126.9,0 H 1719.05 C 771.801,0 1.01715,772.167 1.01715,1721.4 c 0,458.8 178.16185,889.83 501.68185,1213.35 325.552,325.52 757.601,504.71 1216.351,504.71 H 16126.9 c 95.7,0 173.1,-77.41 173.1,-173.08 V 173.081 C 16300,77.4111 16222.6,0 16126.9,0" /></g><g
         transform="scale(2.08491)"
         id="g26"><path
           id="path28"
           style="fill:#7ec9e9;fill-opacity:1;fill-rule:nonzero;stroke:none"
           d="M 12514.1,16300 V 2436.99 H 1283.73 c -318.327,0 -606.348,-128.83 -818.586,-338.58 C 257.962,1888.71 129.125,1603.23 129.125,1284.9 v 13860.5 c 0,318.3 128.837,606.3 336.019,813.5 212.238,212.2 500.259,341.1 818.586,341.1 H 12514.1" /></g><g
         transform="scale(2.0684)"
         id="g30"><path
           id="path32"
           style="fill:#97d5ed;fill-opacity:1;fill-rule:nonzero;stroke:none"
           d="m 12483.8,7658.88 c -119,347.71 -299,672.98 -534.5,962.43 V 15765.5 H 2694.04 v 145.1 h 0.62 V 16300 H 12483.8 V 7658.88" /></g><g
         transform="scale(2.08491)"
         id="g34"><path
           id="path36"
           style="fill:#5d5f5e;fill-opacity:1;fill-rule:nonzero;stroke:none"
           d="M 2672.7,16300 H 1283.73 c -318.327,0 -606.348,-128.9 -818.586,-341.1 -207.182,-207.2 -336.019,-495.2 -336.019,-813.5 V 1284.9 c 0,318.33 128.837,603.81 336.019,813.51 212.238,209.75 500.259,338.58 818.586,338.58 H 2672.7 V 16300" /></g><g
         transform="scale(2.0684)"
         id="g38"><path
           id="path40"
           style="fill:#7cb0c8;fill-opacity:1;fill-rule:nonzero;stroke:none"
           d="m 2694.66,15910.6 h -0.62 v 389.4 h 0.62 v -389.4" /></g><g
         transform="scale(2.0684)"
         id="g42"><path
           id="path44"
           style="fill:#4e4f4e;fill-opacity:1;fill-rule:nonzero;stroke:none"
           d="M 260.316,2072.57 V 15266.4 c 0,275.5 106.765,534.1 300.471,727.8 197.273,197.3 457.583,305.8 733.143,305.8 h 1400.11 v -389.4 h -880.52 c -320.89,0 -611.22,-129.9 -825.132,-343.8 -208.823,-208.8 -338.711,-499.1 -338.711,-820 V 2415.11 c -98.289,-56.42 -190.182,-126.14 -273.446,-208.28 -41.942,-42.5 -80.582,-87.46 -115.915,-134.26" /></g><g
         transform="scale(2.10141)"
         id="g46"><path
           id="path48"
           style="fill:#60211e;fill-opacity:1;fill-rule:nonzero;stroke:none"
           d="m 1273.61,16043.9 c -271.24,0 -527.46,-106.8 -721.628,-301 -190.666,-190.7 -295.755,-445.1 -295.755,-716.4 V 2040.01 c 34.779,46.07 72.812,90.32 114.095,132.15 244.713,241.46 564.993,373.8 903.288,373.8 H 2523.69 V 16043.9 Z M 128.113,1146.75 C 57.3034,1146.75 0,1204.05 0,1274.86 V 15026.5 c 0,339.6 131.615,658.4 370.82,897.6 242.464,242.4 563.244,376 902.79,376 H 2651.8 c 70.81,0 128.11,-57.3 128.11,-128.1 V 2417.85 c 0,-70.81 -57.3,-128.1 -128.11,-128.1 H 1273.61 c -270.49,0 -526.96,-106.12 -722.128,-298.75 -189.919,-192.68 -295.255,-447.42 -295.255,-716.14 0,-70.81 -57.306,-128.11 -128.114,-128.11" /></g><g
         transform="scale(2.10141)"
         id="g50"><path
           id="path52"
           style="fill:#60211e;fill-opacity:1;fill-rule:nonzero;stroke:none"
           d="m 1273.61,16043.9 c -271.24,0 -527.46,-106.8 -721.633,-301 -190.663,-190.7 -295.75,-445.1 -295.75,-716.4 V 2040.01 c 34.777,46.07 72.81,90.32 114.093,132.15 244.715,241.46 564.995,373.8 903.29,373.8 H 12287.6 V 16043.9 H 1273.61 M 128.111,1146.75 C 57.3052,1146.75 0,1204.05 0,1274.86 V 15026.5 c 0,339.6 131.615,658.4 370.82,897.6 242.464,242.4 563.244,376 902.79,376 H 12415.8 c 70.8,0 128.1,-57.3 128.1,-128.1 V 2417.85 c 0,-70.81 -57.3,-128.1 -128.1,-128.1 H 1273.61 c -270.49,0 -526.96,-106.12 -722.133,-298.75 -189.914,-192.68 -295.25,-447.42 -295.25,-716.14 0,-70.81 -57.306,-128.11 -128.116,-128.11" /></g><g
         transform="scale(1.8274)"
         id="g54"><path
           id="path56"
           style="fill:#ffffff;fill-opacity:1;fill-rule:nonzero;stroke:none"
           d="M 4203.11,11483.7 V 16300 H 13124.7 V 11483.7 H 4203.11" /></g><g
         transform="scale(1.82751)"
         id="g58"><path
           id="path60"
           style="fill:#67a6c5;fill-opacity:1;fill-rule:nonzero;stroke:none"
           d="m 4202.79,11483.5 v 0 769.7 l 0.06,-769.7 M 13123.8,16299 h -769.6 v 1 h 769.5 v -1" /></g><g
         transform="scale(1.8274)"
         id="g62"><path
           id="path64"
           style="fill:#dbdad8;fill-opacity:1;fill-rule:nonzero;stroke:none"
           d="M 13124.6,11484.3 H 4203.06 l 0.05,769.6 H 12354.9 V 16300 h 769.8 l -0.1,-4815.7" /></g><g
         transform="scale(1.84391)"
         id="g66"><path
           id="path68"
           style="fill:#60211e;fill-opacity:1;fill-rule:nonzero;stroke:none"
           d="M 4311.33,11526.7 H 12861 V 16008 H 4311.33 Z m 8695.67,-292 H 4165.32 c -80.69,0 -146,65.3 -146,146 V 16154 c 0,80.7 65.31,146 146,146 H 13007 c 80.7,0 146,-65.3 146,-146 v -4773.3 c 0,-80.7 -65.3,-146 -146,-146" /></g><g
         transform="scale(1.69785)"
         id="g70"><path
           id="path72"
           style="fill:#60211e;fill-opacity:1;fill-rule:nonzero;stroke:none"
           d="M 12751.6,15982.9 H 5898.41 c -87.66,0 -158.59,70.9 -158.59,158.5 0,87.7 70.93,158.6 158.59,158.6 h 6853.19 c 87.6,0 158.5,-70.9 158.5,-158.6 0,-87.6 -70.9,-158.5 -158.5,-158.5" /></g><g
         transform="scale(1.57394)"
         id="g74"><path
           id="path76"
           style="fill:#60211e;fill-opacity:1;fill-rule:nonzero;stroke:none"
           d="M 13755.4,15957.9 H 6362.75 c -94.57,0 -171.08,76.5 -171.08,171.1 0,94.5 76.51,171 171.08,171 h 7392.65 c 94.5,0 171,-76.5 171,-171 0,-94.6 -76.5,-171.1 -171,-171.1" /></g><g
         transform="scale(1.45004)"
         id="g78"><path
           id="path80"
           style="fill:#60211e;fill-opacity:1;fill-rule:nonzero;stroke:none"
           d="M 11992.1,15928.7 H 6906.45 c -102.65,0 -185.7,83 -185.7,185.7 0,102.6 83.05,185.6 185.7,185.6 h 5085.65 c 102.6,0 185.7,-83 185.7,-185.6 0,-102.7 -83.1,-185.7 -185.7,-185.7" /></g><g
         transform="scale(1.58908)"
         id="g82"><path
           id="path84"
           style="fill:#9dce24;fill-opacity:1;fill-rule:nonzero;stroke:none"
           d="m 12364.4,12572.4 c 1086.7,0 2069.9,-439.7 2782.9,-1152.7 713,-713 1152.7,-1696.15 1152.7,-2782.88 -2173.5,0 -3935.6,1761.98 -3935.6,3935.58" /></g><g
         transform="scale(1.57108)"
         id="g86"><path
           id="path88"
           style="fill:#abd643;fill-opacity:1;fill-rule:nonzero;stroke:none"
           d="m 16300,9079.81 c -193.9,614.29 -533.2,1163.69 -979.2,1609.79 -661.5,661.5 -1552.4,1090.7 -2543.2,1156.5 -52.7,224.8 -85.4,457 -96.3,695 951.9,-42.8 1840.4,-433.7 2518.2,-1111.8 637.8,-637.8 1021.6,-1461.95 1100.5,-2349.49" /></g><g
         transform="scale(1.60559)"
         id="g90"><path
           id="path92"
           style="fill:#60211e;fill-opacity:1;fill-rule:nonzero;stroke:none"
           d="m 12408.8,12271.6 c 87.1,-1919.1 1632.8,-3464.8 3551.9,-3551.93 -41.9,931.06 -424.4,1800.53 -1087.9,2464.03 -663.2,663.5 -1532.6,1046 -2464,1087.9 m 3723.5,-3891.19 c -2240.3,0 -4062.8,1822.49 -4062.8,4062.79 0,92.6 75,167.7 167.7,167.7 1085.3,0 2105.7,-422.8 2872.7,-1190.1 767.3,-767.3 1190.1,-1787.76 1190.1,-2872.72 0,-92.68 -75,-167.67 -167.7,-167.67" /></g><g
         transform="scale(1.86217)"
         id="g94"><path
           id="path96"
           style="fill:#b5834b;fill-opacity:1;fill-rule:nonzero;stroke:none"
           d="m 13999.7,6373.63 c 0,0 -48.9,232.1 -74.9,588.03 -25.6,355.5 -29.8,839.66 80.5,1338 26.8,124.48 62.6,249.28 105.8,372.15 42.7,122.98 96,243.21 155.7,358.51 121.2,230 281.1,435.29 447.1,590.01 82.9,77.92 166,142.57 243.5,196.22 76.8,54.29 149.4,92.85 208,128.24 122.4,58.41 192.4,91.81 192.4,91.81 l 6.5,3.1 c 297,141.6 652.5,15.7 794.1,-281.25 141.6,-296.92 15.7,-652.42 -281.2,-794.08 -57,-27.12 -118.7,-44.62 -178,-52.79 0,0 -38.1,-5.1 -104.9,-13.96 -31.4,-9.13 -73.1,-14.82 -118,-29.37 -45.2,-13.8 -96.2,-32.06 -150.8,-58.48 -108.9,-52.2 -234.3,-136.4 -357.1,-261.36 -60.3,-63.26 -121.3,-134.2 -178,-214.27 -57,-79.64 -111.8,-166.2 -161.1,-258.3 -201.5,-367.58 -327,-803.42 -394.6,-1133.46 -34.3,-165.67 -55.9,-306.26 -68.3,-404.74 -12.6,-99.19 -16.8,-154.29 -16.8,-154.29 -3.2,-41.78 -39.7,-73.08 -81.5,-69.86 -34.4,2.68 -61.7,28.03 -68.4,60.14" /></g><g
         transform="scale(1.83755)"
         id="g98"><path
           id="path100"
           style="fill:#bf9464;fill-opacity:1;fill-rule:nonzero;stroke:none"
           d="m 14323.9,8323.38 c 4,19.05 7.9,37.93 12.1,56.77 25.4,117 59.8,238.03 102.7,359.93 38.3,111.02 88.7,226.66 148.8,342.79 110.2,208.6 260.4,407.23 424.1,559.72 68.9,64.98 146.2,127.34 230.6,186.01 52.1,36.62 102.2,65.52 146.8,91.59 l 244.1,121.81 c 63.5,30.1 130.2,44.4 196,44.4 171.1,0 335.1,-96.12 413.5,-260.09 47.3,-99.26 57.4,-209.57 29.3,-314.38 -114.7,122.66 -276.1,191.34 -442.7,191.34 -87.1,0 -175.5,-18.72 -259.5,-58.34 l -6.1,-3.05 c 0,0 -71.5,-35.05 -194.8,-92.89 -59.5,-36.58 -132.6,-76.14 -211.7,-130.99 -77.7,-53.28 -161.4,-118.75 -246.7,-197.93 -167.5,-156.84 -328.9,-365.43 -452.3,-598.41 -50.1,-96.65 -95.1,-196.35 -134.2,-298.28" /></g><g
         transform="scale(1.87182)"
         id="g102"><path
           id="path104"
           style="fill:#60211e;fill-opacity:1;fill-rule:nonzero;stroke:none"
           d="m 15539.3,9901.72 c -64.6,0 -130.1,-14 -192.4,-43.54 l -239.6,-119.62 c -43.9,-25.59 -93,-53.95 -144.1,-89.91 -82.9,-57.59 -158.8,-118.81 -226.4,-182.6 -160.7,-149.7 -308.2,-344.69 -416.4,-549.47 -59,-114.01 -108.4,-227.53 -146,-336.52 -42.2,-119.67 -75.9,-238.48 -100.9,-353.34 -84.8,-384.87 -110.6,-818.89 -76.9,-1290.51 1.9,-29.82 4.5,-58.45 6.7,-86.23 5.3,27.78 11.2,56.41 17.4,85.96 51.7,252.53 173.3,740.72 407.1,1167.42 49.4,92.16 106.7,183.73 169.6,271.66 52.8,74.69 114.9,149.7 189.3,228.39 122.8,124.69 259.6,224.43 397.8,290.73 61,29.49 118.8,50.28 169.9,65.98 29.5,9.57 59.9,16.3 87.1,22.23 l 158.2,26.12 c 46.1,6.2 92.7,20.2 134,39.59 108.1,51.71 189.6,142.16 229.5,255.1 40.1,112.88 33.7,234.8 -18,343.25 -77,160.96 -237.9,255.31 -405.9,255.31 M 14068.2,6370.71 v -0.27 0.27 m -66.6,-234 c -5.4,0 -11,0.33 -16.6,0.59 -97.2,8.12 -178.4,79.23 -198.3,173.58 v 0.32 c -2,9.83 -50.8,244.63 -77.2,604.22 -35.7,499.73 -7.6,961.53 83.1,1372.52 27.2,126.14 64.3,256.44 110.1,387.06 42.2,121.38 96.9,247.51 162.7,374.77 123.3,233.68 291.6,455.6 474.7,626.39 77.5,73.04 164.6,143.29 258.1,208.2 57.9,40.71 114.4,73.56 164.6,102.79 l 50.1,29.45 203.9,98.1 c 373.6,178.4 813.5,21.6 987.9,-344.72 84.9,-177.53 95.3,-377.23 29.9,-562.66 -65.8,-185.65 -199.8,-334.28 -377.3,-418.8 -67.4,-32.32 -143.3,-54.81 -219.1,-65.17 l -104.8,-14.05 c 4.8,-0.27 -12.4,-4.22 -30.9,-8.18 -18.8,-3.9 -39.6,-8.12 -61.2,-15.44 -41.3,-12.6 -85.1,-27.78 -131.8,-50.54 -76.4,-36.81 -192.4,-106.2 -315.7,-231.48 -63.2,-66.83 -116.9,-131.16 -162.1,-195.21 -56.2,-78.7 -107,-159.85 -151.1,-242.17 -216,-394.65 -329.8,-851.43 -378.1,-1088.52 -33.5,-160.7 -54.3,-296.61 -66.3,-391.86 -11.8,-92.43 -16.1,-144.36 -16.3,-146.65 -4.2,-57.86 -31,-111.23 -75.6,-149.43 -40.2,-34.57 -90.2,-53.11 -142.7,-53.11" /></g><g
         transform="scale(2.13785)"
         id="g106"><path
           id="path108"
           style="fill:#e73935;fill-opacity:1;fill-rule:nonzero;stroke:none"
           d="M 16018.6,2842.81 C 15406.1,1040.58 13732.1,-151.741 12282,182.006 c -7.9,1.31 -14.4,2.619 -22.3,5.239 -7.8,-2.62 -14.4,-3.929 -22.2,-5.239 -391.4,-90.325 -799.7,-69.369 -1198.9,45.795 C 9960.12,536.708 8947.14,1527.47 8499.49,2842.81 c -612.53,1803.55 65.44,3533.79 1516.91,3866.23 747.3,170.17 1553.6,-62.82 2243.3,-575.86 689.7,513.04 1496,746.03 2242,575.86 890,-204.18 1489.4,-933.18 1677.9,-1882.08 120.4,-599.43 75.9,-1286.53 -161,-1984.15" /></g><g
         transform="scale(2.06013)"
         id="g110"><path
           id="path112"
           style="fill:#ffffff;fill-opacity:1;fill-rule:nonzero;stroke:none"
           d="m 16300,6142.43 c -306.5,408.33 -731,700.39 -1251.2,819.71 519.8,-119.17 945.1,-411.24 1251.2,-819.71" /></g><g
         transform="scale(2.06815)"
         id="g114"><path
           id="path116"
           style="fill:#eb4e4f;fill-opacity:1;fill-rule:nonzero;stroke:none"
           d="M 10193,888.957 C 9581.45,1385.49 9072.73,2097.09 8785.91,2938.61 v 0 c -158.31,466.07 -233.21,927.45 -233.11,1362.67 0.34,1305.61 675.87,2376.13 1801.1,2633.84 168.7,38.4 340.3,56.96 512.8,56.96 617.9,0 1248.8,-237.65 1806.1,-652.22 557.4,414.52 1188.3,652.22 1805.5,652.22 172.4,0 343.7,-18.56 512.1,-56.96 v 0 c 518.2,-118.85 941,-409.78 1246.4,-816.52 21.7,-28.96 42.7,-58.46 63.2,-88.58 -211.1,143.41 -449.1,247.61 -711.6,307.13 -169.1,38.83 -341.3,57.64 -514.4,57.64 -616.5,0 -1246.5,-237.8 -1803.2,-652.95 -556.6,415.1 -1186.6,652.95 -1803.8,652.95 -173.4,0 -345.7,-18.76 -515.1,-57.64 C 9451.57,5994.86 8750.75,4204.96 9383.93,2341.99 9570.61,1795.42 9850.67,1302.95 10193,888.957" /></g><g
         transform="scale(2.13054)"
         id="g118"><path
           id="path120"
           style="fill:#c6332f;fill-opacity:1;fill-rule:nonzero;stroke:none"
           d="m 11778.4,126.259 c -233.7,0 -469.3,35.202 -702,102.323 200.4,36.046 402.6,59.28 605.7,59.28 48.4,0 97,-1.315 145.6,-4.129 214,-11.782 425.5,-51.209 639.6,-52.523 6.6,-0.048 13.2,-0.096 19.8,-0.096 234.9,0 467.3,44.685 698.5,89.416 169.4,32.808 342.8,66.978 491.2,153.669 261.3,154.938 405.8,449.135 642.2,639.561 102.4,82.75 220.6,145.78 319.1,232.47 122.1,106.36 186.9,261.67 290.3,386.1 1259.5,1515.67 832.6,2098.63 1306.7,3111.18 42.8,-213.18 64.9,-437.49 64.9,-669.36 0,-422.28 -73,-869.73 -226.4,-1321.59 C 15528.5,1248.89 14145.8,126.448 12825,126.448 c -168.6,0 -336.1,18.257 -500.9,56.182 -7.9,1.315 -14.4,2.628 -22.3,5.257 -7.9,-2.629 -14.5,-3.942 -22.4,-5.257 -164.6,-38.018 -332.3,-56.371 -501,-56.371" /></g><g
         transform="scale(2.14724)"
         id="g122"><path
           id="path124"
           style="fill:#60211e;fill-opacity:1;fill-rule:nonzero;stroke:none"
           d="m 10471.9,6609.98 c -159.6,0 -317.4,-17.42 -471.4,-52.68 C 9446.83,6430.72 8999.7,6086.89 8707.09,5563.1 8295.91,4826.76 8249.9,3845.54 8580.97,2871.18 9170.89,1138.21 10772.6,-13.2256 12155.9,302.902 c 20.1,4.657 63.5,9.314 84.3,3.911 1398.4,-321.7613 3000.7,831.397 3589.6,2564.367 331.6,973.62 286,1954.37 -124.9,2690.71 -292.6,524.53 -740.2,868.55 -1294.6,995.41 -685.7,157 -1440.9,-39.16 -2129.2,-551.45 -44.6,-32.83 -105.3,-32.83 -149.9,0 -533.8,396.93 -1108.6,604.13 -1659.3,604.13 z M 12719.9,0.513013 c -172.9,0 -344.8,18.348387 -514,56.536987 -1499.4,-339.413 -3232.66,884.486 -3862.44,2733.32 -353.85,1041.71 -300.99,2096.88 144.7,2895.16 328.14,587.5 831.62,973.39 1456.52,1116.18 731.72,167.24 1532.72,-24.26 2261.42,-540.23 728.3,515.97 1527.6,707.24 2260,540.23 616.6,-140.83 1134.3,-537.76 1457.7,-1117.62 445.5,-798.33 497.9,-1852.98 143.5,-2893.72 C 15509.5,1149.71 14083.6,0.513013 12719.9,0.513013" /></g></g></g></svg>